<?xml version="1.0" standalone="no"?><!DOCTYPE svg PUBLIC "-//W3C//DTD SVG 1.1//EN" "http://www.w3.org/Graphics/SVG/1.1/DTD/svg11.dtd"><svg t="1632035472149" class="icon" viewBox="0 0 1024 1024" version="1.1" xmlns="http://www.w3.org/2000/svg" p-id="10896" xmlns:xlink="http://www.w3.org/1999/xlink" width="200" height="200"><defs><style type="text/css"></style></defs><path d="M606.394157 211.050325c3.299796-59.996286 27.698285-121.992448 69.995667-176.989044 6.899573-8.899449 5.999629-21.498669-2.599839-28.898211l-0.099994-0.099993c-8.899449-7.59953-22.698595-6.599591-29.798156 2.699832-47.897035 61.896168-75.395333 132.391804-79.195097 201.187546" fill="#795548" p-id="10897"></path><path d="M517.799641 131.055277c-28.498236 3.999752-80.095042 18.398861-156.190331 112.393043-27.898273 34.497864-251.084457 310.380786-143.691105 555.965583 32.697976 74.79537 82.694881 116.092813 93.6942 124.892268 130.791903 104.793513 296.781628 58.996348 306.081052 56.196522 28.798217-8.499474 113.992943-33.497926 168.689558-112.393043 81.994924-118.392671 48.197016-290.182036-6.199617-387.276026-20.898706-37.297691-40.597487-55.89654-56.196521-106.193426-26.598353-85.694695 3.299796-119.492603-24.998452-168.689557-32.997957-57.096465-115.292863-84.094794-181.188784-74.895364z" fill="#DCE775" p-id="10898"></path><path d="M519.099561 1024c-65.795927 0-151.590616-14.799084-227.085943-75.295339-19.898768-15.899016-69.695686-61.196212-102.793637-136.791532-106.793389-243.984896 86.294658-511.868313 147.990839-588.063596 81.09498-100.193798 139.291377-118.592659 176.0891-123.692343 71.995543-10.099375 170.989415 18.198873 212.486846 90.29441 18.598849 32.298001 17.898892 60.396261 17.298929 87.494584-0.599963 24.498483-1.199926 49.796917 10.49935 87.494584 9.499412 30.6981 20.19875 47.097084 33.697914 67.895797 6.399604 9.799393 12.999195 19.898768 19.898768 32.198006 53.196707 94.794132 98.393909 284.982358 4.699709 420.373977-60.89623 87.994553-154.690424 115.592844-185.488517 124.592288-3.599777 1.099932-47.097084 13.499164-107.293358 13.499164z m2.999814-862.046636c-15.199059 2.09987-61.296206 8.599468-136.191569 101.193736-56.096527 69.29571-231.985639 312.080681-139.291378 523.767577 27.498298 62.896106 68.295772 99.99381 84.594764 113.092999 119.392609 95.694076 271.3832 52.49675 277.782804 50.596867 25.598415-7.499536 103.393599-30.398118 151.790603-100.293791 77.395209-111.79308 37.697666-273.083095-7.799517-354.178075-5.899635-10.49935-11.899263-19.798774-17.798898-28.698223-14.199121-21.898644-28.898211-44.497245-41.097456-83.494832-14.69909-47.397066-13.89914-80.794998-13.299177-107.493345 0.599963-23.498545 0.899944-37.697666-8.999443-54.796608-26.798341-46.697109-97.193983-66.995853-149.690733-59.696305z" fill="#558B2F" p-id="10899"></path><path d="M712.287601 688.020799c0 156.990282-89.594454 223.786147-200.087613 223.786146S312.01238 845.01108 312.01238 688.020799s89.594454-344.578669 200.087614-344.57867S712.287601 531.130511 712.287601 688.020799z" fill="#FFF59D" p-id="10900"></path><path d="M591.495079 518.031322c8.999443 23.698533 13.999133 50.196893 13.999133 78.395147 0 98.293915-61.496193 177.988982-137.391495 177.988981-30.398118 0-58.496379-12.799208-81.294967-34.497864 15.99901 67.395828 65.995915 96.993996 125.392238 96.993996 72.195531 0 130.791903-43.697295 130.791903-146.290944 0-60.196274-20.19875-127.392114-51.496812-172.589316z" fill="#962005" p-id="10901"></path><path d="M605.494212 596.426469c0-28.098261-5.099684-54.696614-13.999133-78.395147-21.998638-31.798032-49.496936-52.696738-79.295091-52.696738-72.195531 0-130.791903 122.692405-130.791904 225.286054 0 18.298867 1.899882 34.697852 5.399666 49.296948 22.798589 21.698657 50.896849 34.497864 81.294967 34.497864 75.895302 0 137.391495-79.695067 137.391495-177.988981z" fill="#BF360C" p-id="10902"></path></svg>